<svg xmlns="http://www.w3.org/2000/svg" viewBox="0 0 512 512">
  <circle cx="256" cy="256" r="256" fill="#FFC61B"/>
  <path fill="#EAA22F" d="M437.02 437.02c40.3-40.3 64.33-90.67 72.15-143l-172.9-172.9-110.73 187.46-50.6 81.33L294.2 509.17c52.27-7.84 102.6-31.87 142.84-72.12z"/>
  <path fill="#333131" d="M320.36 398.22H191.64c-11.58 0-20.97-9.4-20.97-20.97v-242.5c0-11.58 9.4-20.97 20.97-20.97h128.72c11.58 0 20.97 9.4 20.97 20.97v242.5c0 11.58-9.4 20.97-20.97 20.97z"/>
  <path fill="#272525" d="M320.36 113.78h-64.93v284.44h64.93c11.58 0 20.98-9.4 20.98-20.97v-242.5c0-11.58-9.4-20.97-20.98-20.97z"/>
  <path fill="#FFF" d="M184.9 128.64h142.2V366.1H184.9z"/>
  <path fill="#D0D1D3" d="M255.43 128.64h71.7V366.1h-71.7z"/>
  <path fill="#FFC61B" d="M206.87 217.64h24.57v73.7h-24.57z"/>
  <path fill="#EAA22F" d="M243.7 193.08h24.58v98.26H243.7z"/>
  <path fill="#E09112" d="M255.43 193.08h12.86v98.26h-12.9z"/>
  <path fill="#C92F00" d="M280.57 242.2h24.57v49.14h-24.57z"/>
  <path fill="#B54324" d="M199.1 299.96h113.8v8.62H199.1z"/>
  <path fill="#930000" d="M255.43 299.96h57.46v8.62h-57.5z"/>
</svg>
