<svg xmlns="http://www.w3.org/2000/svg" viewBox="0 0 512 512">
  <path fill="#BFDCFF" d="M0 256c0 141.38 114.6 256 256 256l22.26-256L256 0C114.62 0 0 114.62 0 256z"/>
  <path fill="#8BC0FF" d="M256 0v512c141.38 0 256-114.62 256-256S397.38 0 256 0z"/>
  <path fill="#3897FF" d="M44.52 256c0 116.6 94.87 211.48 211.48 211.48L278.26 256 256 44.52C139.4 44.52 44.52 139.4 44.52 256z"/>
  <path fill="#2D79CC" d="M256 44.52v422.96c116.6 0 211.48-94.87 211.48-211.48S372.6 44.52 256 44.52z"/>
  <path fill="#FFF" d="M222.6 144.7c0 18.44 14.96 33.4 33.4 33.4l11.13-33.4L256 111.3c-18.44 0-33.4 14.95-33.4 33.4z"/>
  <path fill="#BFDCFF" d="M256 111.3v66.8c18.44 0 33.4-14.96 33.4-33.4s-14.96-33.4-33.4-33.4z"/>
  <path fill="#FFF" d="M222.6 222.6v178.1H256l11.13-89.05L256 222.6"/>
  <path fill="#BFDCFF" d="M256 222.6h33.4v178.1H256z"/>
</svg>
